<svg id="drop-down" xmlns="http://www.w3.org/2000/svg" width="40" height="40" viewBox="0 0 40 40">
  <g id="Rectangle_119" data-name="Rectangle 119" fill="rgba(255,255,255,0.7)" stroke="rgba(112,112,112,0)" stroke-width="1">
    <rect width="40" height="40" rx="20" stroke="none"/>
    <rect x="0.5" y="0.5" width="39" height="39" rx="19.5" fill="none"/>
  </g>
  <g id="circle" transform="translate(4 4)">
    <path id="Path_104" data-name="Path 104" d="M34.737,53.667a16,16,0,1,1,16-16A16.018,16.018,0,0,1,34.737,53.667Zm0-30.915A14.915,14.915,0,1,0,49.652,37.667,14.932,14.932,0,0,0,34.737,22.752Z" transform="translate(-18.737 -21.667)" stroke="#000" stroke-width="0.5"/>
  </g>
  <g id="arrow" transform="translate(12.5 16.5)">
    <path id="Path_105" data-name="Path 105" d="M46.225,54.611l-7.364-7.394,1.115-1.11,6.27,6.3L52.767,46.1l1.094,1.13Z" transform="translate(-38.861 -46.097)" stroke="#000" stroke-linejoin="bevel" stroke-width="0.5"/>
  </g>
</svg>
