<svg xmlns="http://www.w3.org/2000/svg" width="24.1" height="24.1" viewBox="0 0 24.1 24.1">
  <g id="fb" transform="translate(0.05 0.05)">
    <rect id="Rectangle_11" data-name="Rectangle 11" width="24" height="24" stroke="#000" stroke-width="0.1" opacity="0"/>
    <g id="Group_30" data-name="Group 30" transform="translate(12.789 12.79)">
      <path id="Path_7" data-name="Path 7" d="M4.132,1.92A2.219,2.219,0,0,0,1.92,4.132V18.289A2.219,2.219,0,0,0,4.132,20.5h7.447a.444.444,0,0,0,.144,0h2.51a.444.444,0,0,0,.144,0h3.912A2.219,2.219,0,0,0,20.5,18.289V4.132A2.219,2.219,0,0,0,18.289,1.92Zm0,.885H18.289a1.321,1.321,0,0,1,1.327,1.327V18.289a1.321,1.321,0,0,1-1.327,1.327H14.75V13.423h1.69l.62-3.1H14.75V9.441c0-.247.023-.266.106-.32A1.726,1.726,0,0,1,15.635,9h1.327V6.507l-.252-.12a6.1,6.1,0,0,0-2.4-.486,2.911,2.911,0,0,0-2.336,1.051,3.934,3.934,0,0,0-.76,2.489v.885H9.883v3.1h1.327v6.194H4.132A1.321,1.321,0,0,1,2.8,18.289V4.132A1.321,1.321,0,0,1,4.132,2.8ZM14.308,6.787a4.656,4.656,0,0,1,1.77.31V8.114h-.442a2.229,2.229,0,0,0-1.261.265,1.25,1.25,0,0,0-.509,1.062v1.77H15.98l-.265,1.327H13.865v7.079H12.1V12.538H10.768V11.211H12.1V9.441a3.088,3.088,0,0,1,.567-1.936A1.952,1.952,0,0,1,14.308,6.787Z" transform="translate(-12 -12.005)" stroke="#000" stroke-width="0.1"/>
    </g>
  </g>
</svg>
