<svg id="insta" xmlns="http://www.w3.org/2000/svg" width="24" height="24" viewBox="0 0 24 24">
  <rect id="Rectangle_12" data-name="Rectangle 12" width="24" height="24" fill="none" opacity="0"/>
  <g id="Group_36" data-name="Group 36" transform="translate(11.473 11.473)">
    <g id="Group_35" data-name="Group 35" transform="translate(-8.82 -8.82)">
      <g id="Group_32" data-name="Group 32" transform="translate(0 0)">
        <path id="Path_8" data-name="Path 8" d="M1.377,15.71A4.281,4.281,0,0,0,5.5,19.836c1.323.067,3.013.117,5.1.117s3.781-.05,5.1-.117a4.281,4.281,0,0,0,4.126-4.126c.067-1.323.117-3.013.117-5.1s-.05-3.781-.117-5.1A4.281,4.281,0,0,0,15.71,1.377c-1.323-.067-3.013-.117-5.1-.117s-3.781.05-5.1.117A4.282,4.282,0,0,0,1.377,5.5c-.067,1.323-.117,3.013-.117,5.1S1.31,14.388,1.377,15.71Z" transform="translate(-1.26 -1.26)" fill="none" stroke="#000" stroke-linecap="round" stroke-linejoin="round" stroke-width="1.26"/>
      </g>
      <g id="Group_33" data-name="Group 33" transform="translate(4.896 4.896)">
        <circle id="Ellipse_1" data-name="Ellipse 1" cx="4.451" cy="4.451" r="4.451" fill="none" stroke="#000" stroke-linecap="round" stroke-linejoin="round" stroke-width="1.26"/>
      </g>
      <g id="Group_34" data-name="Group 34" transform="translate(14.687 3.561)">
        <path id="Path_9" data-name="Path 9" d="M15.12,4.62h.445" transform="translate(-15.12 -4.62)" fill="none" stroke="#000" stroke-linecap="round" stroke-linejoin="round" stroke-width="1.26"/>
      </g>
    </g>
  </g>
</svg>
