<svg xmlns="http://www.w3.org/2000/svg" width="25" height="25" viewBox="0 0 25 25">
  <g id="snapchat" transform="translate(0.5 0.5)">
    <rect id="Rectangle_6" data-name="Rectangle 6" width="24" height="24" stroke="#000" stroke-width="1" opacity="0"/>
    <g id="Group_17" data-name="Group 17" transform="translate(9.71 9.881)">
      <path id="Path_11" data-name="Path 11" d="M11.286,1.438a6.294,6.294,0,0,0-2.469.534A5.622,5.622,0,0,0,5.929,4.9,10.007,10.007,0,0,0,5.64,9.221c.007.1.009.191.014.289-.043.02-.005.029-.144.029a2.077,2.077,0,0,1-.838-.231,1.011,1.011,0,0,0-.433-.087,1.452,1.452,0,0,0-.751.217,1.02,1.02,0,0,0-.505.679.968.968,0,0,0,.2.751,2.268,2.268,0,0,0,.982.635c.1.041.211.081.318.116a4.152,4.152,0,0,1,.664.246.751.751,0,0,1,.347.318.645.645,0,0,1-.087.549.208.208,0,0,0-.014.029c0,.007-.009.013-.014.029-.058.13-1.323,2.888-3.957,3.321A.667.667,0,0,0,.86,16.8a.93.93,0,0,0,.072.289,1.487,1.487,0,0,0,.852.722A8.631,8.631,0,0,0,3.7,18.3a3.234,3.234,0,0,1,.087.332s0,.011,0,.014c.032.15.063.314.116.491a.785.785,0,0,0,.347.448.81.81,0,0,0,.4.1,2.617,2.617,0,0,0,.52-.072A5.238,5.238,0,0,1,6.232,19.5a4.7,4.7,0,0,1,.751.058,3.652,3.652,0,0,1,1.386.722,4.936,4.936,0,0,0,2.989,1.17c.023,0,.049-.013.072-.014s.049,0,.072,0,.078.014.116.014a4.941,4.941,0,0,0,2.989-1.17,3.639,3.639,0,0,1,1.386-.722,4.7,4.7,0,0,1,.751-.058,5.273,5.273,0,0,1,1.069.116,2.493,2.493,0,0,0,.505.058h.029a.753.753,0,0,0,.448-.144.772.772,0,0,0,.274-.39c.052-.177.081-.347.116-.505a3.012,3.012,0,0,1,.087-.332,8.631,8.631,0,0,0,1.921-.491,1.493,1.493,0,0,0,.852-.722.861.861,0,0,0,.072-.289.67.67,0,0,0-.563-.693,4.992,4.992,0,0,1-2.96-1.791,6.871,6.871,0,0,1-1-1.545v-.014a.219.219,0,0,0-.014-.029c-.144-.291-.144-.446-.1-.549a.751.751,0,0,1,.347-.318,4.086,4.086,0,0,1,.664-.246c.108-.034.217-.076.318-.116a2.49,2.49,0,0,0,.91-.549,1,1,0,0,0,.289-.693,1.055,1.055,0,0,0-.765-.939l-.014-.014s-.011,0-.014,0a1.389,1.389,0,0,0-.52-.1,1.075,1.075,0,0,0-.491.1,2.19,2.19,0,0,1-.78.231h-.014c-.013,0,0,0-.014,0-.06-.007-.042-.018-.072-.029.005-.079.009-.15.014-.231V9.221A9.982,9.982,0,0,0,17.048,4.9,5.65,5.65,0,0,0,14.16,1.958a6.21,6.21,0,0,0-2.469-.52h-.4Zm0,.924h.4a5.4,5.4,0,0,1,2.094.448A4.641,4.641,0,0,1,16.21,5.279a10.771,10.771,0,0,1,.2,3.884v.058c-.013.193-.034.381-.043.563a.46.46,0,0,0,.144.347,1.36,1.36,0,0,0,.881.332h.029a3.066,3.066,0,0,0,1.17-.318.355.355,0,0,1,.1-.014.6.6,0,0,1,.173.029s.011,0,.014,0l.029.014a.382.382,0,0,1,.173.1s0,.013,0,.014-.011.009-.029.029a1.821,1.821,0,0,1-.592.332c-.056.022-.141.054-.246.087a4.816,4.816,0,0,0-.823.318,1.582,1.582,0,0,0-.765.765,1.537,1.537,0,0,0,.1,1.271c0,.007,0,.009,0,.014a.08.08,0,0,0,.014.029,7.434,7.434,0,0,0,1.141,1.791,6.073,6.073,0,0,0,3.061,1.964c-.058.038-.018.036-.13.087a7.846,7.846,0,0,1-1.834.448.779.779,0,0,0-.534.462,2.976,2.976,0,0,0-.159.563c-.022.1-.049.193-.072.289a1.547,1.547,0,0,1-.231-.029,6.316,6.316,0,0,0-1.242-.13,5.409,5.409,0,0,0-.9.072,4.328,4.328,0,0,0-1.776.881,3.959,3.959,0,0,1-2.455,1c-.043,0-.087,0-.13,0a.3.3,0,0,0-.058,0c-.018,0-.051,0-.072,0a3.95,3.95,0,0,1-2.455-1,4.318,4.318,0,0,0-1.776-.881,5.408,5.408,0,0,0-.9-.072,6.358,6.358,0,0,0-1.242.13c-.112.022-.153.034-.217.043-.025-.1-.063-.2-.087-.3a3.172,3.172,0,0,0-.144-.549.884.884,0,0,0-.173-.274.63.63,0,0,0-.361-.188,7.852,7.852,0,0,1-1.848-.462c-.116-.051-.072-.047-.13-.087a6.891,6.891,0,0,0,4.2-3.755l.014-.029c0-.005,0-.007,0-.014a1.537,1.537,0,0,0,.1-1.271,1.589,1.589,0,0,0-.765-.765,4.726,4.726,0,0,0-.809-.318c-.107-.034-.206-.065-.26-.087a1.553,1.553,0,0,1-.607-.361c0,.009-.011-.031.058-.072a.662.662,0,0,1,.274-.072c.036,0,.034,0,.029,0a2.958,2.958,0,0,0,1.242.318,1.393,1.393,0,0,0,.968-.332.459.459,0,0,0,.13-.347c-.011-.2-.031-.408-.043-.621a10.809,10.809,0,0,1,.2-3.884A4.633,4.633,0,0,1,9.178,2.81,5.457,5.457,0,0,1,11.286,2.362Z" transform="translate(-9.197 -9.326)" stroke="#000" stroke-width="0.43"/>
    </g>
  </g>
</svg>
