<svg xmlns="http://www.w3.org/2000/svg" width="25.366" height="15.035" viewBox="0 0 25.366 15.035">
  <g id="Group_117" data-name="Group 117" transform="translate(-1020.8 -464.8)">
    <path id="Path_86" data-name="Path 86" d="M27.535,15H3.43a.43.43,0,0,0-.43.43v3.525a.43.43,0,0,0,.37.43A2.926,2.926,0,0,1,5.763,22.61a2.8,2.8,0,0,1-2.389,2.583.43.43,0,0,0-.374.43V29.2a.43.43,0,0,0,.43.43h24.1a.43.43,0,0,0,.43-.43V15.43A.43.43,0,0,0,27.535,15ZM27.1,28.8H9.646L9.607,18.461c0-.238-.193-1.215-.43-1.215l-.392.788c-.131,0,.019,8.014,0,8.028l.022,2.729H3.831V25.938a3.689,3.689,0,0,0,2.763-3.28,3.814,3.814,0,0,0-2.763-4.063V15.835H8.746v2.626c.008-.044.193.43.43.43h0a.43.43,0,0,0,.43-.43V15.835H27.135Z" transform="translate(1018 450)" stroke="#000" stroke-width="0.4"/>
    <path id="Path_87" data-name="Path 87" d="M29.627,24.8a1.842,1.842,0,1,0-1.305-.538,1.847,1.847,0,0,0,1.305.538Zm0-2.858a1.016,1.016,0,1,1-1.016,1.016A1.016,1.016,0,0,1,29.627,21.945Z" transform="translate(1003.886 446.52)" stroke="#000" stroke-width="0.4"/>
    <path id="Path_88" data-name="Path 88" d="M41,34.4a1.842,1.842,0,1,0,.538-1.305A1.847,1.847,0,0,0,41,34.4Zm1.842-1.012a1,1,0,1,1-.017,0Z" transform="translate(996.357 440.004)" stroke="#000" stroke-width="0.4"/>
    <path id="Path_89" data-name="Path 89" d="M31.813,29.891a.413.413,0,0,0,.568-.155l4.688-8.123a.43.43,0,1,0-.719-.43l-4.688,8.14a.43.43,0,0,0,.151.568Z" transform="translate(1001.704 446.649)" stroke="#000" stroke-width="0.4"/>
  </g>
</svg>
