<svg id="tiktok" xmlns="http://www.w3.org/2000/svg" width="24" height="24" viewBox="0 0 24 24">
  <rect id="Rectangle_8" data-name="Rectangle 8" width="24" height="24" opacity="0"/>
  <g id="Group_21" data-name="Group 21" transform="translate(11.16 11.072)">
    <path id="Path_3" data-name="Path 3" d="M8.714,10.7c-3.4.236-6.314,2.657-6.314,6.368a6.314,6.314,0,1,0,12.628,0l-.182-7.962a12.192,12.192,0,0,0,6.467,2.083.835.835,0,0,0,.92-.578,3.955,3.955,0,0,0,0-1.649.944.944,0,0,0-.92-.628c-3.171-.317-6.157-2.883-6.585-5.913a.944.944,0,0,0-.644-.835,4.656,4.656,0,0,0-2.323,0,.85.85,0,0,0-.606.835l-.336,14.646a2.1,2.1,0,1,1-4.209,0,2.366,2.366,0,0,1,2.1-2.211" transform="translate(-11.52 -11.52)" fill="none" stroke="#000" stroke-linecap="round" stroke-linejoin="round" stroke-width="1.2"/>
  </g>
</svg>
