<svg id="twitter" xmlns="http://www.w3.org/2000/svg" width="24" height="24" viewBox="0 0 24 24">
  <rect id="Rectangle_7" data-name="Rectangle 7" width="24" height="24" fill="#fff" opacity="0"/>
  <g id="Group_19" data-name="Group 19" transform="translate(11.221 11.361)">
    <path id="Path_2" data-name="Path 2" d="M14.754,2.188a4.68,4.68,0,0,0-4.675,4.675,4.589,4.589,0,0,0,.054.458A11.592,11.592,0,0,1,2.21,3.131a.434.434,0,0,0-.372-.163.429.429,0,0,0-.342.217,4.578,4.578,0,0,0,.31,5.107c-.111-.049-.232-.076-.337-.135a.431.431,0,0,0-.633.377v.054A4.652,4.652,0,0,0,2.87,12.4a.333.333,0,0,1-.04,0,.43.43,0,0,0-.485.552,4.685,4.685,0,0,0,3.234,3.059,8.056,8.056,0,0,1-4.136,1.145A8.1,8.1,0,0,1,.485,17.1.431.431,0,0,0,.2,17.9a12.435,12.435,0,0,0,6.737,1.981,12.11,12.11,0,0,0,9.3-4.083,12.976,12.976,0,0,0,3.22-8.435c0-.123-.01-.243-.013-.364a9.031,9.031,0,0,0,2.048-2.142.431.431,0,0,0-.539-.633c-.222.1-.482.109-.714.189a4.576,4.576,0,0,0,.728-1.347.431.431,0,0,0-.633-.5,8.08,8.08,0,0,1-2.412.93A4.641,4.641,0,0,0,14.754,2.188Zm0,.862a3.817,3.817,0,0,1,2.789,1.213.434.434,0,0,0,.4.121A8.873,8.873,0,0,0,19.564,3.9a3.839,3.839,0,0,1-1.1,1.011.431.431,0,0,0,.283.808,8.909,8.909,0,0,0,1.226-.337,8.19,8.19,0,0,1-1.213,1.078.43.43,0,0,0-.175.377c.007.175.013.349.013.526a12.13,12.13,0,0,1-3,7.855,11.2,11.2,0,0,1-8.65,3.8,11.531,11.531,0,0,1-4.81-1.051A8.925,8.925,0,0,0,6.98,16.119a.431.431,0,0,0-.256-.768A3.777,3.777,0,0,1,3.476,13.33h.067a4.7,4.7,0,0,0,1.24-.162.431.431,0,0,0-.027-.835A3.786,3.786,0,0,1,1.806,9.221,4.578,4.578,0,0,0,3.167,9.5a.431.431,0,0,0,.256-.795,3.818,3.818,0,0,1-1.7-3.18,3.746,3.746,0,0,1,.3-1.374A12.446,12.446,0,0,0,10.6,8.264a.436.436,0,0,0,.354-.152.431.431,0,0,0,.091-.374,3.85,3.85,0,0,1-.108-.876A3.805,3.805,0,0,1,14.754,3.05Z" transform="translate(-10 -10.392)" stroke="#000" stroke-width="0.4"/>
  </g>
</svg>
